# xmcd CD database file
#
# Track frame offsets:
#	150
#	12280
#	24447
#	30532
#	45055
#	61905
#	74545
#	85927
#	98432
#	108575
#	121367
#	137022
#	146955
#	154660
#	165617
#	178132
#	185525
#	201727
#
# Disc length: 2800 seconds
#
# Revision: 1
# Processed by: cddbd v1.5.1PL2 Copyright (c) Steve Scherf et al.
# Submitted via: jetAudio 5
#
DISCID=f60aee12
DTITLE=Carlos Poyares - Uma chorada na casa do Six
DYEAR=1995
DGENRE=Choro
TTITLE0=Minha Viagem
TTITLE1=Cuidado Violão
TTITLE2=Jockey de Elefante
TTITLE3=Tenebroso
TTITLE4=Sentimental
TTITLE5=Presidente esperança
TTITLE6=Musicos e amigos
TTITLE7=Evocação a Nzareth
TTITLE8=Violão Manhoso
TTITLE9=Misterioso
TTITLE10=Voltei ao meu lugar
TTITLE11=Cidadão Paulistano
TTITLE12=Equilibrando
TTITLE13=Homenagem a Presidente Prudente
TTITLE14=Proezas de Solon
TTITLE15=Pé na Tábua
TTITLE16=Doce de Coco
TTITLE17=Uma Chorada na casa do Six
EXTD=
EXTT0=
EXTT1=
EXTT2=
EXTT3=
EXTT4=
EXTT5=
EXTT6=
EXTT7=
EXTT8=
EXTT9=
EXTT10=
EXTT11=
EXTT12=
EXTT13=
EXTT14=
EXTT15=
EXTT16=
EXTT17=
PLAYORDER=
